<?xml version="1.0" encoding="utf-8"?>
<!-- Generator: Adobe Illustrator 21.1.0, SVG Export Plug-In . SVG Version: 6.00 Build 0)  -->
<svg version="1.1" id="Layer_1" xmlns="http://www.w3.org/2000/svg" xmlns:xlink="http://www.w3.org/1999/xlink" x="0px" y="0px"
	 viewBox="0 0 1095 120" style="enable-background:new 0 0 1095 120;" xml:space="preserve">
<g>
	<polygon points="786.5,16.1 786.5,8.6 745.9,8.6 745.9,79.4 786.5,79.4 786.5,71.9 753.7,71.9 753.7,47.8 780.2,47.8 780.2,40.3 
		753.7,40.3 753.7,16.1 	"/>
	<path d="M715,48.5c2.1-0.9,4.1-2.2,5.7-3.8c1.6-1.6,2.9-3.5,3.8-5.7c0.9-2.2,1.4-4.5,1.4-7v-5.6c0-2.4-0.5-4.8-1.4-7
		s-2.2-4.1-3.8-5.7s-3.5-2.9-5.7-3.8c-2.1-0.9-4.5-1.4-6.9-1.4h-22.8v70.9h7.8V49.8h7.3l18.8,29.6h9l-18.7-29.6
		C711.4,49.7,713.3,49.2,715,48.5z M711.8,41.5c-1.2,0.5-2.6,0.8-4,0.8h-14.7V16h14.7c1.4,0,2.8,0.3,4,0.8s2.3,1.3,3.3,2.2
		c0.9,0.9,1.7,2,2.2,3.3c0.5,1.2,0.8,2.6,0.8,4v5.6c0,1.4-0.3,2.8-0.8,4s-1.3,2.4-2.2,3.3C714.2,40.2,713.1,41,711.8,41.5z"/>
	<polygon points="626.7,79.4 667.2,79.4 667.2,71.9 634.4,71.9 634.4,47.8 661,47.8 661,40.3 634.4,40.3 634.4,16.1 667.2,16.1 
		667.2,8.6 626.7,8.6 	"/>
	<polygon points="595.8,40.3 570.8,40.3 570.8,8.6 563,8.6 563,79.4 570.8,79.4 570.8,47.8 595.8,47.8 595.8,79.4 603.6,79.4 
		603.6,8.6 595.8,8.6 	"/>
	<path d="M539.6,13.8c-1.6-1.6-3.5-2.9-5.7-3.8s-4.5-1.4-6.9-1.4h-22.7v70.9h7.8V52.9H527c2.4,0,4.8-0.5,6.9-1.4
		c2.2-0.9,4.1-2.2,5.7-3.8c1.6-1.6,2.9-3.5,3.8-5.7c0.9-2.1,1.4-4.5,1.4-6.9v-8.6c0-2.4-0.5-4.8-1.4-7
		C542.4,17.3,541.2,15.4,539.6,13.8z M537,26.4V35c0,1.4-0.3,2.8-0.8,4s-1.3,2.3-2.2,3.3c-0.9,0.9-2.1,1.7-3.3,2.2s-2.6,0.8-4,0.8
		h-14.6V16.1h14.6c1.4,0,2.8,0.3,4,0.8s2.3,1.3,3.3,2.2c0.9,0.9,1.7,2,2.2,3.3C536.7,23.6,537,25,537,26.4z"/>
	<path d="M479.1,47.2c-1.6-1.5-3.4-2.7-5.4-3.8c-1.9-1-4-1.9-6.1-2.7c-2.1-0.8-4.1-1.6-6-2.4s-3.6-1.7-5.1-2.7s-2.6-2.2-3.5-3.7
		c-0.9-1.4-1.3-3.1-1.3-5.2v-1.3c0-1.4,0.3-2.8,0.8-4s1.3-2.3,2.2-3.3c0.9-0.9,2-1.7,3.3-2.2c1.2-0.5,2.6-0.8,4-0.8h3.9
		c1.4,0,2.8,0.3,4,0.8s2.3,1.3,3.3,2.2c0.9,0.9,1.7,2,2.2,3.3c0.5,1.2,0.8,2.6,0.8,4V29l7.8,0.1v-3.6c0-2.5-0.5-4.8-1.4-6.9
		s-2.2-4.1-3.8-5.7s-3.5-2.9-5.7-3.8c-2.1-0.9-4.5-1.4-6.9-1.4h-4.4c-2.4,0-4.8,0.5-7,1.4s-4.1,2.2-5.7,3.8
		c-1.6,1.6-2.9,3.5-3.8,5.7c-0.9,2.1-1.4,4.5-1.4,6.9v1.3c0,3.1,0.5,5.7,1.5,7.8c1,2.1,2.3,3.9,3.9,5.4c1.6,1.4,3.4,2.7,5.4,3.6
		c1.9,0.9,4,1.8,6.1,2.6c2.1,0.8,4.1,1.5,6,2.3c1.9,0.7,3.6,1.7,5.1,2.7c1.4,1,2.6,2.3,3.5,3.8c0.9,1.4,1.3,3.3,1.3,5.5v2.1
		c0,1.4-0.3,2.8-0.9,4c-0.6,1.2-1.4,2.3-2.4,3.3c-1,0.9-2.2,1.7-3.4,2.2c-1.3,0.5-2.7,0.8-4.1,0.8h-4.3c-1.4,0-2.8-0.3-4.1-0.8
		c-1.3-0.5-2.5-1.3-3.5-2.2c-1-1-1.8-2.1-2.4-3.3c-0.6-1.2-0.9-2.6-0.9-4v-4.5h-7.8v4.6c0,2.5,0.5,4.8,1.5,6.9s2.3,4,4,5.6
		s3.6,2.9,5.8,3.8c2.2,0.9,4.5,1.4,7,1.4h5c2.4,0,4.8-0.5,7-1.4s4.1-2.2,5.8-3.8c1.7-1.6,3-3.5,4-5.6c1-2.2,1.5-4.5,1.5-6.9v-2.1
		c0-3.1-0.5-5.7-1.5-7.9C482,50.5,480.7,48.7,479.1,47.2z"/>
	<path d="M419.4,12.8c-1.6-1.6-3.5-2.9-5.7-3.8c-2.1-0.9-4.5-1.4-6.9-1.4h-4.9c-2.4,0-4.8,0.5-7,1.4s-4.1,2.2-5.7,3.8
		c-1.6,1.6-2.9,3.5-3.8,5.7c-0.9,2.1-1.4,4.5-1.4,6.9v37.2c0,2.5,0.5,4.8,1.4,6.9s2.2,4,3.8,5.7c1.6,1.6,3.5,2.9,5.7,3.8
		s4.5,1.4,7,1.4h4.9c2.4,0,4.8-0.5,6.9-1.4s4.1-2.2,5.7-3.8c1.6-1.6,2.9-3.5,3.8-5.7c0.9-2.1,1.4-4.5,1.4-6.9V25.4
		c0-2.5-0.5-4.8-1.4-6.9C422.3,16.3,421,14.4,419.4,12.8z M416.8,25.4v37.2c0,1.4-0.3,2.8-0.8,4s-1.3,2.3-2.2,3.3
		c-0.9,0.9-2,1.7-3.3,2.2c-1.2,0.5-2.6,0.8-4,0.8h-4.3c-1.4,0-2.8-0.3-4-0.8s-2.3-1.3-3.3-2.2c-0.9-0.9-1.7-2.1-2.2-3.3
		c-0.5-1.2-0.8-2.6-0.8-4V25.4c0-1.4,0.3-2.8,0.8-4s1.3-2.3,2.2-3.3s2-1.7,3.3-2.2c1.2-0.5,2.6-0.8,4-0.8h4.3c1.4,0,2.8,0.3,4,0.8
		s2.3,1.3,3.3,2.2c0.9,0.9,1.7,2,2.2,3.3C416.5,22.6,416.8,24,416.8,25.4z"/>
	<path d="M359.9,47.2c-1.6-1.5-3.4-2.7-5.4-3.8c-1.9-1-4-1.9-6.1-2.7c-2.1-0.8-4.1-1.6-6-2.4s-3.6-1.7-5.1-2.7s-2.6-2.2-3.5-3.7
		c-0.9-1.4-1.3-3.1-1.3-5.2v-1.3c0-1.4,0.3-2.8,0.8-4s1.3-2.3,2.2-3.3c0.9-0.9,2-1.7,3.3-2.2c1.2-0.5,2.6-0.8,4-0.8h3.9
		c1.4,0,2.8,0.3,4,0.8s2.3,1.3,3.3,2.2c0.9,0.9,1.7,2,2.2,3.3c0.5,1.2,0.8,2.6,0.8,4V29l7.8,0.1v-3.6c0-2.5-0.5-4.8-1.4-6.9
		s-2.2-4.1-3.8-5.7c-1.6-1.6-3.5-2.9-5.7-3.8c-2.1-0.9-4.5-1.4-6.9-1.4h-4.4c-2.4,0-4.8,0.5-7,1.4s-4.1,2.2-5.7,3.8
		c-1.6,1.6-2.9,3.5-3.8,5.7c-0.9,2.1-1.4,4.5-1.4,6.9v1.3c0,3.1,0.5,5.7,1.5,7.8c1,2.1,2.3,3.9,3.9,5.4c1.6,1.4,3.4,2.7,5.4,3.6
		s4,1.8,6.1,2.6c2.1,0.8,4.1,1.5,6,2.3c1.9,0.7,3.6,1.7,5.1,2.7c1.4,1,2.6,2.3,3.5,3.8c0.9,1.4,1.3,3.3,1.3,5.5v2.1
		c0,1.4-0.3,2.8-0.9,4s-1.4,2.3-2.4,3.3c-1,0.9-2.2,1.7-3.4,2.2c-1.3,0.5-2.7,0.8-4.1,0.8h-4.3c-1.4,0-2.8-0.3-4.1-0.8
		c-1.3-0.5-2.5-1.3-3.5-2.2c-1-1-1.8-2.1-2.4-3.3c-0.6-1.2-0.9-2.6-0.9-4v-4.5h-7.8v4.6c0,2.5,0.5,4.8,1.5,6.9s2.3,4,4,5.6
		s3.6,2.9,5.8,3.8c2.2,0.9,4.5,1.4,7,1.4h5c2.4,0,4.8-0.5,7-1.4s4.1-2.2,5.8-3.8c1.7-1.6,3-3.5,4-5.6c1-2.2,1.5-4.5,1.5-6.9v-2.1
		c0-3.1-0.5-5.7-1.5-7.9S361.5,48.7,359.9,47.2z"/>
	<polygon points="267.8,79.4 308.4,79.4 308.4,71.9 275.6,71.9 275.6,47.8 302.2,47.8 302.2,40.3 275.6,40.3 275.6,16.1 308.4,16.1 
		308.4,8.6 267.8,8.6 	"/>
	<polygon points="222.4,47.9 203,8.6 197.9,8.6 197.9,79.4 205.5,79.4 205.5,29.2 220.4,59 224.5,59 239.3,29.3 239.3,79.4 
		246.9,79.4 246.9,8.6 241.9,8.6 	"/>
</g>
<path d="M146.7,9.6c-1.1-0.7-2.5-1-4.4-1.1H17.6c-1.3,0-3.2,0.1-4.6,1.1c-3.2,1.7-5.1,5-5.1,8.5v72.2c0,5,3.4,7.3,6.5,7.3
	c1.4,0,2.9-0.4,4.3-1.3l32-19.7l22.8,33.7c1.6,2.3,3.9,3.7,6.4,3.7s4.8-1.3,6.4-3.7l29-42.8l25.9,12.7c3.3,1.6,6.9,1,8.9-1.4
	c1.2-1.4,1.8-3.2,1.8-5.3V18.1C152,14.6,149.9,11.2,146.7,9.6z M46.6,70.5L15.5,89.7V24.6L46.6,70.5z M135.4,24.6L112.8,58
	l-17.5-8.6L135.4,24.6z M27.8,16.1H135L87.4,45.4L27.8,16.1z M108.6,64.2l-28.4,42c-0.1,0.1-0.2,0.2-0.2,0.3
	c-0.1-0.1-0.1-0.2-0.2-0.3L57.2,72.8L87.8,54L108.6,64.2z M79.8,50.1L52.9,66.6L22.7,21.9L79.8,50.1z M144.5,24.5v49l-24.9-12.3
	L144.5,24.5z"/>
<g>
	<path d="M941.8,84.8l26-76.6c1-3,3.9-5.1,7.1-5.1h4.8l-26,76.6c-1,3-3.9,5.1-7.1,5.1H941.8z"/>
	<path d="M834.7,9.2H860c11.5,0,20.4,8.7,20.4,20.2v29.5c0,11.5-8.9,20.2-20.4,20.2h-25.3V9.2z M859.8,67.1c4.6,0,8-3.6,8-8.2V29.4
		c0-4.6-3.4-8.2-8-8.2h-12.6v45.9L859.8,67.1L859.8,67.1z"/>
	<path d="M926.5,55.1h12.6v4.8c0,11.5-8.9,20.2-20.4,20.2h-5c-11.5,0-20.4-8.7-20.4-20.2V28.4c0-11.5,8.9-20.2,20.4-20.2h5
		c11.5,0,20.4,8.7,20.4,20.2v4.8h-12.6v-4.8c0-4.6-3.4-8.2-8-8.2h-4.6c-4.6,0-8,3.6-8,8.2v31.5c0,4.6,3.4,8.2,8,8.2h4.6
		c4.6,0,8-3.6,8-8.2V55.1z"/>
	<g>
		<path d="M1028.2,59.9c0,11.5-8.9,20.2-20.4,20.2h-5c-11.5,0-20.4-8.7-20.4-20.2V28.4c0-11.5,8.9-20.2,20.4-20.2h5
			c11.5,0,20.4,8.7,20.4,20.2V59.9z M995,59.9c0,4.6,3.4,8.2,8,8.2h4.6c4.6,0,8-3.6,8-8.2V28.4c0-4.6-3.4-8.2-8-8.2h-4.6
			c-4.6,0-8,3.6-8,8.2V59.9z"/>
		<path d="M1041.6,28.4c0-11.5,8.9-20.2,20.4-20.2h3.5c11.5,0,20.4,8.7,20.4,20.2v3.5h-12.6v-3.5c0-4.6-3.4-8.2-8-8.2h-3.1
			c-4.6,0-8,3.6-8,8.2V29c0,14.1,32.1,4.1,32.1,30v0.9c0,11.5-8.9,20.2-20.4,20.2h-4.5c-11.5,0-20.4-8.7-20.4-20.2v-3.5h12.6v3.5
			c0,4.6,3.4,8.2,8,8.2h4.1c4.6,0,8-3.6,8-8.2V59c0-14.9-32.1-3.1-32.1-30V28.4z"/>
	</g>
</g>
</svg>
